<?xml version="1.0" encoding="utf-8"?>
<!-- Generator: Adobe Illustrator 27.5.0, SVG Export Plug-In . SVG Version: 6.00 Build 0)  -->
<svg version="1.1" id="BACKGROUND" xmlns="http://www.w3.org/2000/svg" xmlns:xlink="http://www.w3.org/1999/xlink" x="0px" y="0px"
	 viewBox="0 0 750 500" style="enable-background:new 0 0 750 500;" xml:space="preserve">
<rect style="fill:#D45619;" width="750" height="500"/>
<g>
	<path style="fill:#D45619;" d="M52.36,356.055c-17.117-7.73-36.362-6.605-52.36,1.16v28.079
		c25.371,2.946,44.89,27.931,42.36,55.761c-1.469,19.836-4.826,39.401-7.794,58.945h35.882c1.32-27.884,9.495-57.105,12.911-83.945
		C87.36,389.055,74.36,366.055,52.36,356.055z"/>
	<path style="fill:#B22F71;" d="M0,385.294V500h34.566c2.967-19.544,6.324-39.109,7.794-58.945
		C44.89,413.224,25.371,388.24,0,385.294z"/>
	<path style="fill:#E43D34;" d="M106.36,445.055C79.469,446.848,82.306,478.362,83.903,500h32.877
		C121.474,480.208,120.217,460.021,106.36,445.055z"/>
	<path style="fill:#0B1C2C;" d="M545.995,0c-14.75,12.086-28.131,25.918-39.635,41.055c-34,45-39,102-80,141c-12,11-32,23-46,10
		c-15-12-11-32-5-48c4-10,7-20,9-31C393.324,72.719,403.406,35.174,419.186,0H404.19c-27.341,46.521-36.37,97.061-48.831,151.055
		c-8,34-26,59-49,84c-48,51-115,63-182,72C80.632,312.885,41.625,295.112,0,284.926v72.289c15.998-7.765,35.243-8.89,52.36-1.16
		c22,10,35,33,31,60c-3.416,26.84-11.591,56.061-12.911,83.945h13.454c-1.597-21.638-4.434-53.152,22.457-54.945
		c13.857,14.966,15.114,35.153,10.42,54.945h11.285c0.432-0.648,0.872-1.286,1.296-1.945c21-33-10-66-8-101c0-13,3-27,14-35
		c58-44,127-49,192-72c90-31,133-120,175-200C522.786,50.979,555.049,19.8,593.533,0H545.995z"/>
	<path style="fill:#B22F71;" d="M423.36,92.055C415.242,59.583,433.155,30.366,442.616,0h-23.43
		c-15.78,35.174-25.862,72.719-34.826,113.055c-2,11-5,21-9,31c-6,16-10,36,5,48c14,13,34,1,46-10c41-39,46-96,80-141
		C517.864,25.918,531.245,12.086,545.995,0h-53.463c-24.445,25.7-31.811,61.854-55.172,91.055
		C433.36,96.055,424.36,96.055,423.36,92.055z"/>
	<path style="fill:#E43D34;" d="M423.36,92.055c1,4,10,4,14-1C460.721,61.854,468.087,25.7,492.532,0h-49.916
		C433.155,30.366,415.242,59.583,423.36,92.055z"/>
	<path style="fill:none;" d="M307.186,0c-11.138,24.975-17.143,52.562-16.826,81.055c0,12,0,25-6,36c-8,13-27,19-35,5
		C229,83.99,236.842,41.225,234.75,0h-17.383c-1.847,40,9.829,79.484,14.993,120.055c7,54-53,79-94,75
		C72.455,188.608,29.645,138.027,0,80.811v77.005c41.225,44.433,82.97,86.975,142.36,104.239c39,12,80-8,108-34c59-58,56-145,76-222
		c0.544-2.039,1.148-4.058,1.806-6.055H307.186z"/>
	<path style="fill:#DA6FA3;" d="M290.36,81.055c-0.317-28.493,5.688-56.08,16.826-81.055h-45.078
		c0.092,0.686,0.177,1.371,0.251,2.055c-0.074-0.684-0.16-1.369-0.251-2.055H234.75c2.092,41.225-5.75,83.99,14.61,122.055
		c8,14,27,8,35-5C290.36,106.055,290.36,93.055,290.36,81.055z"/>
	<path style="fill:#0B1C2C;" d="M232.36,120.055C227.196,79.484,215.52,40,217.367,0h-60.153
		c-3.139,29.518-0.769,61.029-8.854,89.055c-9,31-41,48-70,38c-30-10-49-36-58-65C15.017,44.837,5.091,26.562,0,8.275v72.536
		c29.645,57.216,72.455,107.797,138.36,114.244C179.36,199.055,239.36,174.055,232.36,120.055z"/>
	<path style="fill:#DA6FA3;" d="M79.36,82.055c-10-4-15-12-19-21C51.913,41.346,46.944,20.645,48.573,0H0v8.275
		c5.091,18.286,15.017,36.562,20.36,53.78c9,29,28,55,58,65c29,10,61-7,70-38c8.085-28.026,5.715-59.537,8.854-89.055h-30.822
		c-10.005,24.906-17.191,50.184-28.032,75.055C94.36,84.055,86.36,84.055,79.36,82.055z"/>
	<path style="fill:#E43D34;" d="M60.36,61.055c4,9,9,17,19,21c7,2,15,2,19-7C109.201,50.184,116.387,24.906,126.392,0H48.573
		C46.944,20.645,51.913,41.346,60.36,61.055z"/>
	<path style="fill:#DA6FA3;" d="M20.36,207.055c-5.636-5.635-12.542-11.27-20.36-14.937v61.665
		c7.647-5.286,14.821-11.188,21.36-17.728C29.36,228.055,27.36,215.055,20.36,207.055z"/>
	<path style="fill:#7C3F78;" d="M328.165,0c-0.657,1.997-1.262,4.016-1.806,6.055c-20,77-17,164-76,222c-28,26-69,46-108,34
		C82.97,244.79,41.225,202.249,0,157.816v34.302c7.818,3.667,14.724,9.302,20.36,14.937c7,8,9,21,1,29
		C14.821,242.594,7.647,248.496,0,253.783v31.144c41.625,10.185,80.632,27.959,124.36,22.129c67-9,134-21,182-72c23-25,41-50,49-84
		C367.82,97.061,376.849,46.521,404.19,0H328.165z"/>
	<path style="fill:#7F3E78;" d="M689.36,400.055c-11-1-9,14-7,21c4.191,26.821,9.782,52.94,6.772,78.945H750v-18.968
		c-18.299-22.052-32.763-47.702-50.64-72.977C696.36,404.055,693.36,401.055,689.36,400.055z"/>
	<path style="fill:#D45619;" d="M700.36,368.055c-12-15-33-39-52-27c-11,7-6,21-3,31c13.587,39.963,36.752,85.674,27.637,127.945
		h16.135c3.009-26.005-2.581-52.124-6.772-78.945c-2-7-4-22,7-21c4,1,7,4,10,8c17.878,25.275,32.341,50.925,50.64,72.977V433.53
		C732.971,412.287,717.806,388.555,700.36,368.055z"/>
	<path style="fill:#0B1C2C;" d="M581.36,322.055c-24,40,22,70,39,101c2,5,4,11,4,16c1.605,20.335,0.924,40.956,3.771,60.945h44.866
		c9.115-42.271-14.049-87.982-27.637-127.945c-3-10-8-24,3-31c19-12,40,12,52,27c17.446,20.5,32.611,44.232,49.64,65.475v-70.717
		c-38.128-35.251-93.965-50.954-144.64-51.758C596.36,311.055,586.36,314.055,581.36,322.055z"/>
	<path style="fill:#E43D34;" d="M542.36,435.055c-2-20-14-43-37-42c-51.121,2.894-71.538,60.675-77.408,106.945h23.439
		c0.541-28.827,21.566-56.288,48.969-66.945c11-4,22,3,23,18c1.403,16.839-2.113,32.694-3.302,48.945h29.676
		C545.801,478.776,544.86,456.308,542.36,435.055z"/>
	<path style="fill:#D45619;" d="M523.36,451.055c-1-15-12-22-23-18c-27.404,10.657-48.428,38.118-48.969,66.945h68.668
		C521.247,483.749,524.763,467.894,523.36,451.055z"/>
	<path style="fill:#DA6FA3;" d="M505.36,393.055c23-1,35,22,37,42c2.5,21.253,3.441,43.721,7.374,64.945h37.543
		c-1.487-56.596-15.052-118.808-68.917-143.945c-24-12-54,0-79,11c-28,13-59,33-62,64c-2,21,15,41,9,63
		c-0.494,1.977-1.026,3.959-1.594,5.945h43.186C433.822,453.73,454.239,395.949,505.36,393.055z"/>
	<path style="fill:#E43D34;" d="M613.36,208.055c47.027-9.9,92.012-9.583,136.64-2.433v-33.385
		c-70.547,9.735-141.068,3.984-207.64,29.818c-12,4-22,14-26,26c-6,19,2,38-9,56c-31,47-87,51-133,71c-34,14-49,49-39,87
		c6.022,23.229-1.47,42.568-15.618,57.945h65.024c0.568-1.986,1.1-3.968,1.594-5.945c6-22-11-42-9-63c3-31,34-51,62-64
		c25-11,55-23,79-11c53.866,25.137,67.43,87.349,68.917,143.945h40.853c-2.847-19.989-2.165-40.61-3.771-60.945c0-5-2-11-4-16
		c-17-31-63-61-39-101c5-8,15-11,24-11c50.675,0.804,106.512,16.507,144.64,51.758v-22.432c-8.192-6.382-17.001-12.215-26.64-17.326
		c-43-22-90-28-138-33c-21-3-51-15-43-40C552.36,222.055,586.36,213.055,613.36,208.055z"/>
	<path style="fill:#DA6FA3;" d="M613.36,208.055c-27,5-61,14-71,42c-8,25,22,37,43,40c48,5,95,11,138,33
		c9.639,5.112,18.448,10.944,26.64,17.326v-51.08c-8.525-7.189-19.076-12.23-30.64-15.246c-45-9-89,5-131-10c-3-1-6-6-4-10
		c17-31,61-23,90-22c24.654,0,50.145,4.046,75.64,7.083v-33.516C705.372,198.471,660.387,198.154,613.36,208.055z"/>
	<path style="fill:#E43D34;" d="M584.36,254.055c-2,4,1,9,4,10c42,15,86,1,131,10c11.564,3.017,22.115,8.058,30.64,15.246v-50.163
		c-25.495-3.037-50.986-7.083-75.64-7.083C645.36,231.055,601.36,223.055,584.36,254.055z"/>
	<path style="fill:#B22F71;" d="M739.36,126.055c-36,10-70,16-107,20c-57,6-118,14-158,60c-17,18-14,44-29,65c-4,5-6,11-12,15
		c-40,21-91,18-120,56c-13,16-10,38-7,58c2,11,3,22-2,32c-9,18-23,35-24,56c-0.298,4.022-0.369,8.004-0.238,11.945h39.62
		c14.148-15.377,21.64-34.716,15.618-57.945c-10-38,5-73,39-87c46-20,102-24,133-71c11-18,3-37,9-56c4-12,14-22,26-26
		c66.572-25.834,137.093-20.083,207.64-29.818v-48.017C746.484,124.526,742.94,125.113,739.36,126.055z"/>
	<path style="fill:#D45619;" d="M644.36,116.055c-20,5-40,11-57,3c-16-8-23-23-20-38C574.184,43.143,599.985,19.034,629.496,0
		h-35.963c-38.484,19.8-70.747,50.979-91.173,90.055c-42,80-85,169-175,200c-65,23-134,28-192,72c-11,8-14,22-14,35
		c-2,35,29,68,8,101c-0.424,0.659-0.864,1.297-1.296,1.945h38.301c1.554-4.142,2.622-8.474,2.995-12.945c1-34,2-70,26-97
		c21-22,53-28,81-24c8,0,12,11,10,24c-8.067,37.646-17.473,73.484-16.707,109.945h10.47c-0.131-3.941-0.06-7.923,0.238-11.945
		c1-21,15-38,24-56c5-10,4-21,2-32c-3-20-6-42,7-58c29-38,80-35,120-56c6-4,8-10,12-15c15-21,12-47,29-65c40-46,101-54,158-60
		c37-4,71-10,107-20c3.58-0.942,7.124-1.529,10.64-1.834v-35.82C713.396,95.92,677.076,107.132,644.36,116.055z"/>
	<path style="fill:#B22F71;" d="M265.36,412.055c2-11-8-22-20-17c-44.391,18.427-50.9,62.809-55.368,104.945h61.971
		c0.176-6.904,0.397-13.619,0.397-19.945C253.36,457.055,263.36,435.055,265.36,412.055z"/>
	<path style="fill:#7B447B;" d="M276.36,366.055c-28-4-60,2-81,24c-24,27-25,63-26,97c-0.373,4.471-1.441,8.803-2.995,12.945h23.627
		c4.469-42.136,10.977-86.518,55.368-104.945c12-5,22,6,20,17c-2,23-12,45-13,68c0,6.326-0.221,13.041-0.397,19.945h17.69
		c-0.766-36.461,8.64-72.299,16.707-109.945C288.36,377.055,284.36,366.055,276.36,366.055z"/>
	<path style="fill:#E43D34;" d="M721.36,40.055c-13-2-21-8-25-17c-2.601-7.802-1.407-16.141,2.582-23.055h-20.74
		c-14.797,10.068-25.408,25.734-22.842,43.055c2,15,24,14,38,14c17.525,0.274,36.926-2.001,56.64-3.993V40.527
		C740.643,41.292,731.116,41.245,721.36,40.055z"/>
	<path style="fill:#0B1C2C;" d="M696.36,23.055c4,9,12,15,25,17c9.756,1.19,19.283,1.237,28.64,0.472V0h-51.058
		C694.953,6.914,693.759,15.253,696.36,23.055z"/>
	<path style="fill:#7F3E78;" d="M693.36,57.055c-14,0-36,1-38-14C652.794,25.734,663.405,10.068,678.202,0h-48.706
		c-29.512,19.034-55.312,43.143-62.136,81.055c-3,15,4,30,20,38c17,8,37,2,57-3c32.716-8.923,69.036-20.135,105.64-27.654V53.062
		C730.286,55.054,710.885,57.329,693.36,57.055z"/>
</g>
</svg>
